<?xml version="1.0" encoding="utf-8"?>
<!-- Generator: Adobe Illustrator 22.0.1, SVG Export Plug-In . SVG Version: 6.00 Build 0)  -->
<svg version="1.1" id="Слой_1" xmlns="http://www.w3.org/2000/svg" xmlns:xlink="http://www.w3.org/1999/xlink" x="0px" y="0px"
	 viewBox="0 0 396.5 397" style="enable-background:new 0 0 396.5 397;" xml:space="preserve">
<style type="text/css">
	.st0{fill:#d9203d;}
	.st1{fill:#FFFFFF;}
</style>
<path class="st0" d="M198,0C88.4,0-0.5,88.8-0.5,198.5c0,109.6,88.9,198.5,198.5,198.5c109.6,0,198.5-88.9,198.5-198.5
	C396.5,88.8,307.6,0,198,0z M296.1,209.7l-140,85.3c-2,1.2-4.2,1.8-6.6,1.8c-2.2,0-4.3-0.6-6.2-1.6c-4-2.2-6.4-6.5-6.4-11V113
	c0-4.6,2.5-8.8,6.5-11c3.9-2.2,8.9-2.1,12.8,0.3l140,85.9c3.7,2.3,6,6.4,6,10.8C302.2,203.3,299.9,207.4,296.1,209.7z"/>
<path class="st1" d="M296.1,209.7l-140,85.3c-2,1.2-4.2,1.8-6.6,1.8c-2.2,0-4.3-0.6-6.2-1.6c-4-2.2-6.4-6.5-6.4-11V113
	c0-4.6,2.5-8.8,6.5-11c3.9-2.2,8.9-2.1,12.8,0.3l140,85.9c3.7,2.3,6,6.4,6,10.8C302.2,203.3,299.9,207.4,296.1,209.7z"/>
</svg>
