<svg xmlns="http://www.w3.org/2000/svg" width="36" height="23" viewBox="0 0 36 23">
  <metadata><?xpacket begin="﻿" id="W5M0MpCehiHzreSzNTczkc9d"?>
<x:xmpmeta xmlns:x="adobe:ns:meta/" x:xmptk="Adobe XMP Core 5.6-c142 79.160924, 2017/07/13-01:06:39        ">
   <rdf:RDF xmlns:rdf="http://www.w3.org/1999/02/22-rdf-syntax-ns#">
      <rdf:Description rdf:about=""/>
   </rdf:RDF>
</x:xmpmeta>
                                                                                                    
                                                                                                    
                                                                                                    
                                                                                                    
                                                                                                    
                                                                                                    
                                                                                                    
                                                                                                    
                                                                                                    
                                                                                                    
                                                                                                    
                                                                                                    
                                                                                                    
                                                                                                    
                                                                                                    
                                                                                                    
                                                                                                    
                                                                                                    
                                                                                                    
                                                                                                    
                           
<?xpacket end="w"?></metadata>
<defs>
    <style>
      .cls-1 {
        fill: #d9203d;
        fill-rule: evenodd;
      }
    </style>
  </defs>
  <path id="Icon" class="cls-1" d="M956.75,4301A15.563,15.563,0,0,0,941,4316.33a0.951,0.951,0,0,0,.013.13c-0.008.14-.013,0.28-0.013,0.42a7.315,7.315,0,1,0,7.311-7.12,7.425,7.425,0,0,0-3.807,1.04,13.555,13.555,0,0,1,12.246-7.62A1.091,1.091,0,1,0,956.75,4301Zm19.124,0a15.564,15.564,0,0,0-15.751,15.33,0.951,0.951,0,0,0,.013.13c-0.008.14-.013,0.28-0.013,0.42a7.318,7.318,0,1,0,7.312-7.12,7.408,7.408,0,0,0-3.8,1.04,13.548,13.548,0,0,1,12.24-7.62A1.091,1.091,0,1,0,975.874,4301Z" transform="translate(-941 -4301)"/>
</svg>
