<svg xmlns="http://www.w3.org/2000/svg" width="36" height="23" viewBox="0 0 36 23">
  <metadata><?xpacket begin="﻿" id="W5M0MpCehiHzreSzNTczkc9d"?>
<x:xmpmeta xmlns:x="adobe:ns:meta/" x:xmptk="Adobe XMP Core 5.6-c142 79.160924, 2017/07/13-01:06:39        ">
   <rdf:RDF xmlns:rdf="http://www.w3.org/1999/02/22-rdf-syntax-ns#">
      <rdf:Description rdf:about=""/>
   </rdf:RDF>
</x:xmpmeta>
                                                                                                    
                                                                                                    
                                                                                                    
                                                                                                    
                                                                                                    
                                                                                                    
                                                                                                    
                                                                                                    
                                                                                                    
                                                                                                    
                                                                                                    
                                                                                                    
                                                                                                    
                                                                                                    
                                                                                                    
                                                                                                    
                                                                                                    
                                                                                                    
                                                                                                    
                                                                                                    
                           
<?xpacket end="w"?></metadata>
<defs>
    <style>
      .cls-1 {
        fill: #d9203d;
        fill-rule: evenodd;
      }
    </style>
  </defs>
  <path id="Icon_copy" data-name="Icon copy" class="cls-1" d="M960.75,880A15.562,15.562,0,0,0,945,895.332a1.122,1.122,0,0,0,.013.13c-0.008.137-.013,0.276-0.013,0.415a7.315,7.315,0,1,0,7.311-7.119A7.408,7.408,0,0,0,948.5,889.8a13.548,13.548,0,0,1,12.246-7.618A1.094,1.094,0,1,0,960.75,880Zm19.124,0a15.563,15.563,0,0,0-15.751,15.334,1.105,1.105,0,0,0,.013.129c-0.008.138-.013,0.277-0.013,0.416a7.318,7.318,0,1,0,7.312-7.119,7.408,7.408,0,0,0-3.8,1.04,13.543,13.543,0,0,1,12.24-7.614A1.093,1.093,0,1,0,979.874,880Z" transform="translate(-945 -880)"/>
</svg>
